<?xml version="1.0" encoding="UTF-8" standalone="no"?>
<!DOCTYPE svg PUBLIC "-//W3C//DTD SVG 1.1//EN"
 "http://www.w3.org/Graphics/SVG/1.1/DTD/svg11.dtd">
<!-- Generated by graphviz version 8.0.4 (0)
 -->
<!-- Title: 1 Pages: 1 -->
<svg width="402pt" height="209pt"
 viewBox="0.00 0.00 402.09 209.37" xmlns="http://www.w3.org/2000/svg" xmlns:xlink="http://www.w3.org/1999/xlink">
<g id="graph0" class="graph" transform="scale(1 1) rotate(0) translate(4 205.37)">
<title>1</title>
<polygon fill="white" stroke="none" points="-4,4 -4,-205.37 398.09,-205.37 398.09,4 -4,4"/>
<!-- vrijheid -->
<g id="node1" class="node">
<title>vrijheid</title>
<ellipse fill="#ffffba" stroke="black" cx="122.51" cy="-138.69" rx="49.63" ry="18"/>
<text text-anchor="middle" x="122.51" y="-134.02" font-family="Times,serif" font-size="14.00">vrijheid</text>
</g>
<!-- goddelijk -->
<g id="node2" class="node">
<title>goddelijk</title>
<ellipse fill="none" stroke="black" cx="57" cy="-182.95" rx="57" ry="18"/>
<text text-anchor="middle" x="57" y="-178.27" font-family="Times,serif" font-size="14.00">goddelijk</text>
</g>
<!-- vrijheid&#45;&gt;goddelijk -->
<g id="edge1" class="edge">
<title>vrijheid&#45;&gt;goddelijk</title>
<path fill="none" stroke="black" d="M98.48,-154.92C95.88,-156.68 93.2,-158.49 90.51,-160.31"/>
<polygon fill="black" stroke="black" points="88.78,-157.93 82.45,-166.43 92.7,-163.73 88.78,-157.93"/>
</g>
<!-- staat van vrezen -->
<g id="node3" class="node">
<title>staat van vrezen</title>
<ellipse fill="#ffffba" stroke="black" cx="197.59" cy="-83.92" rx="94.35" ry="18"/>
<text text-anchor="middle" x="197.59" y="-79.25" font-family="Times,serif" font-size="14.00">staat van vrezen</text>
</g>
<!-- vrijheid&#45;&gt;staat van vrezen -->
<g id="edge2" class="edge">
<title>vrijheid&#45;&gt;staat van vrezen</title>
<path fill="none" stroke="black" d="M153.45,-124.18C160.61,-119.36 168.1,-113.89 174.84,-108.55"/>
<polygon fill="black" stroke="black" points="176.41,-110.97 181.9,-101.91 171.96,-105.56 176.41,-110.97"/>
</g>
<!-- staat van vrezen&#45;&gt;vrijheid -->
<g id="edge3" class="edge">
<title>staat van vrezen&#45;&gt;vrijheid</title>
<path fill="none" stroke="black" d="M163.14,-100.83C157.06,-105.04 150.88,-109.61 145.22,-114.09"/>
<polygon fill="black" stroke="black" points="143.35,-111.93 137.86,-120.99 147.8,-117.33 143.35,-111.93"/>
</g>
<!-- bang zijn -->
<g id="node4" class="node">
<title>bang zijn</title>
<ellipse fill="none" stroke="black" cx="145.7" cy="-18" rx="57" ry="18"/>
<text text-anchor="middle" x="145.7" y="-13.32" font-family="Times,serif" font-size="14.00">bang zijn</text>
</g>
<!-- staat van vrezen&#45;&gt;bang zijn -->
<g id="edge4" class="edge">
<title>staat van vrezen&#45;&gt;bang zijn</title>
<path fill="none" stroke="black" d="M183.41,-65.91C178.07,-59.11 171.87,-51.24 166.07,-43.87"/>
<polygon fill="black" stroke="black" points="168.44,-42.23 159.51,-36.54 162.94,-46.56 168.44,-42.23"/>
</g>
<!-- angst -->
<g id="node5" class="node">
<title>angst</title>
<ellipse fill="none" stroke="black" cx="249.82" cy="-18.05" rx="39.11" ry="18"/>
<text text-anchor="middle" x="249.82" y="-13.37" font-family="Times,serif" font-size="14.00">angst</text>
</g>
<!-- staat van vrezen&#45;&gt;angst -->
<g id="edge5" class="edge">
<title>staat van vrezen&#45;&gt;angst</title>
<path fill="none" stroke="black" d="M211.86,-65.92C217.33,-59.02 223.68,-51.01 229.6,-43.54"/>
<polygon fill="black" stroke="black" points="232.81,-46.13 236.28,-36.12 227.33,-41.78 232.81,-46.13"/>
</g>
<!-- heilige vrees -->
<g id="node6" class="node">
<title>heilige vrees</title>
<ellipse fill="none" stroke="black" cx="272.24" cy="-139.02" rx="75.41" ry="18"/>
<text text-anchor="middle" x="272.24" y="-134.35" font-family="Times,serif" font-size="14.00">heilige vrees</text>
</g>
<!-- staat van vrezen&#45;&gt;heilige vrees -->
<g id="edge6" class="edge">
<title>staat van vrezen&#45;&gt;heilige vrees</title>
<path fill="none" stroke="black" d="M221.62,-101.66C227.41,-105.93 233.68,-110.56 239.78,-115.06"/>
<polygon fill="black" stroke="black" points="237.39,-118.38 247.51,-121.51 241.55,-112.75 237.39,-118.38"/>
</g>
<!-- voor God -->
<g id="node7" class="node">
<title>voor God</title>
<ellipse fill="none" stroke="black" cx="337.62" cy="-183.37" rx="56.47" ry="18"/>
<text text-anchor="middle" x="337.62" y="-178.69" font-family="Times,serif" font-size="14.00">voor God</text>
</g>
<!-- heilige vrees&#45;&gt;voor God -->
<g id="edge7" class="edge">
<title>heilige vrees&#45;&gt;voor God</title>
<path fill="none" stroke="black" d="M297.71,-156.29C299.97,-157.82 302.27,-159.39 304.58,-160.96"/>
<polygon fill="black" stroke="black" points="302.16,-164.22 312.4,-166.94 306.09,-158.43 302.16,-164.22"/>
</g>
</g>
</svg>
