<?xml version="1.0" encoding="UTF-8" standalone="no"?>
<!DOCTYPE svg PUBLIC "-//W3C//DTD SVG 1.1//EN"
 "http://www.w3.org/Graphics/SVG/1.1/DTD/svg11.dtd">
<!-- Generated by graphviz version 8.0.4 (0)
 -->
<!-- Title: 1 Pages: 1 -->
<svg width="589pt" height="589pt"
 viewBox="0.00 0.00 588.99 588.99" xmlns="http://www.w3.org/2000/svg" xmlns:xlink="http://www.w3.org/1999/xlink">
<g id="graph0" class="graph" transform="scale(1 1) rotate(0) translate(4 584.99)">
<title>1</title>
<polygon fill="white" stroke="none" points="-4,4 -4,-584.99 584.99,-584.99 584.99,4 -4,4"/>
<!-- vrijheid -->
<g id="node1" class="node">
<title>vrijheid</title>
<ellipse fill="#ffffba" stroke="black" cx="155.16" cy="-294.12" rx="49.63" ry="18"/>
<text text-anchor="middle" x="155.16" y="-289.45" font-family="Times,serif" font-size="14.00">vrijheid</text>
</g>
<!-- meta&#45;vrijheid -->
<g id="node2" class="node">
<title>meta&#45;vrijheid</title>
<ellipse fill="none" stroke="black" cx="78.5" cy="-250.12" rx="78.04" ry="18"/>
<text text-anchor="middle" x="78.5" y="-245.44" font-family="Times,serif" font-size="14.00">meta&#45;vrijheid</text>
</g>
<!-- vrijheid&#45;&gt;meta&#45;vrijheid -->
<g id="edge1" class="edge">
<title>vrijheid&#45;&gt;meta&#45;vrijheid</title>
<path fill="none" stroke="black" d="M131.03,-277.99C131.03,-277.99 131.03,-274.65 131.03,-274.65"/>
<polygon fill="black" stroke="black" points="134.53,-274.65 131.03,-264.65 127.53,-274.65 134.53,-274.65"/>
</g>
<!-- goddelijk -->
<g id="node3" class="node">
<title>goddelijk</title>
<ellipse fill="none" stroke="black" cx="78.5" cy="-338.13" rx="57" ry="18"/>
<text text-anchor="middle" x="78.5" y="-333.45" font-family="Times,serif" font-size="14.00">goddelijk</text>
</g>
<!-- vrijheid&#45;&gt;goddelijk -->
<g id="edge5" class="edge">
<title>vrijheid&#45;&gt;goddelijk</title>
<path fill="none" stroke="black" d="M120.51,-307.09C120.51,-307.09 120.51,-314.71 120.51,-314.71"/>
<polygon fill="black" stroke="black" points="117.01,-314.71 120.51,-324.71 124.01,-314.71 117.01,-314.71"/>
</g>
<!-- realiseerbaarheid -->
<g id="node4" class="node">
<title>realiseerbaarheid</title>
<ellipse fill="none" stroke="black" cx="264.1" cy="-18" rx="99.61" ry="18"/>
<text text-anchor="middle" x="264.1" y="-13.32" font-family="Times,serif" font-size="14.00">realiseerbaarheid</text>
</g>
<!-- vrijheid&#45;&gt;realiseerbaarheid -->
<g id="edge3" class="edge">
<title>vrijheid&#45;&gt;realiseerbaarheid</title>
<path fill="none" stroke="black" d="M177.92,-277.68C177.92,-277.68 177.92,-38.25 177.92,-38.25"/>
<polygon fill="black" stroke="black" points="181.42,-38.25 177.92,-28.25 174.42,-38.25 181.42,-38.25"/>
</g>
<!-- mogelijkheid tot handelen -->
<g id="node5" class="node">
<title>mogelijkheid tot handelen</title>
<ellipse fill="none" stroke="black" cx="370.54" cy="-117" rx="141.7" ry="18"/>
<text text-anchor="middle" x="370.54" y="-112.33" font-family="Times,serif" font-size="14.00">mogelijkheid tot handelen</text>
</g>
<!-- vrijheid&#45;&gt;mogelijkheid tot handelen -->
<g id="edge4" class="edge">
<title>vrijheid&#45;&gt;mogelijkheid tot handelen</title>
<path fill="none" stroke="black" d="M191.36,-281.38C191.36,-240.77 191.36,-117 191.36,-117 191.36,-117 217.48,-117 217.48,-117"/>
<polygon fill="black" stroke="black" points="217.48,-120.5 227.48,-117 217.48,-113.5 217.48,-120.5"/>
</g>
<!-- staat van vrezen -->
<g id="node6" class="node">
<title>staat van vrezen</title>
<ellipse fill="#ffffba" stroke="black" cx="391.47" cy="-435.24" rx="94.35" ry="18"/>
<text text-anchor="middle" x="391.47" y="-430.56" font-family="Times,serif" font-size="14.00">staat van vrezen</text>
</g>
<!-- vrijheid&#45;&gt;staat van vrezen -->
<g id="edge7" class="edge">
<title>vrijheid&#45;&gt;staat van vrezen</title>
<path fill="none" stroke="black" d="M200.11,-302C249.79,-302 322.88,-302 322.88,-302 322.88,-302 322.88,-411.46 322.88,-411.46"/>
<polygon fill="black" stroke="black" points="319.38,-411.46 322.88,-421.46 326.38,-411.46 319.38,-411.46"/>
</g>
<!-- meta&#45;vrijheid&#45;&gt;goddelijk -->
<g id="edge2" class="edge">
<title>meta&#45;vrijheid&#45;&gt;goddelijk</title>
<path fill="none" stroke="black" d="M77.52,-268.35C77.52,-268.35 77.52,-308.91 77.52,-308.91"/>
<polygon fill="black" stroke="black" points="74.02,-308.91 77.52,-318.91 81.02,-308.91 74.02,-308.91"/>
</g>
<!-- goddelijk&#45;&gt;meta&#45;vrijheid -->
<g id="edge6" class="edge">
<title>goddelijk&#45;&gt;meta&#45;vrijheid</title>
<path fill="none" stroke="black" d="M49.51,-322.39C49.51,-322.39 49.51,-278.22 49.51,-278.22"/>
<polygon fill="black" stroke="black" points="53.01,-278.22 49.51,-268.22 46.01,-278.22 53.01,-278.22"/>
</g>
<!-- staat van vrezen&#45;&gt;vrijheid -->
<g id="edge8" class="edge">
<title>staat van vrezen&#45;&gt;vrijheid</title>
<path fill="none" stroke="black" d="M310,-426.01C310,-396.61 310,-307 310,-307 310,-307 202.07,-307 202.07,-307"/>
<polygon fill="black" stroke="black" points="202.07,-303.5 192.07,-307 202.07,-310.5 202.07,-303.5"/>
</g>
<!-- bang zijn -->
<g id="node7" class="node">
<title>bang zijn</title>
<ellipse fill="none" stroke="black" cx="392.76" cy="-279.29" rx="57" ry="18"/>
<text text-anchor="middle" x="392.76" y="-274.62" font-family="Times,serif" font-size="14.00">bang zijn</text>
</g>
<!-- staat van vrezen&#45;&gt;bang zijn -->
<g id="edge9" class="edge">
<title>staat van vrezen&#45;&gt;bang zijn</title>
<path fill="none" stroke="black" d="M392.76,-417.04C392.76,-417.04 392.76,-308.37 392.76,-308.37"/>
<polygon fill="black" stroke="black" points="396.26,-308.37 392.76,-298.37 389.26,-308.37 396.26,-308.37"/>
</g>
<!-- angst -->
<g id="node8" class="node">
<title>angst</title>
<ellipse fill="none" stroke="black" cx="541.65" cy="-480.25" rx="39.11" ry="18"/>
<text text-anchor="middle" x="541.65" y="-475.58" font-family="Times,serif" font-size="14.00">angst</text>
</g>
<!-- staat van vrezen&#45;&gt;angst -->
<g id="edge10" class="edge">
<title>staat van vrezen&#45;&gt;angst</title>
<path fill="none" stroke="black" d="M486.13,-435C498.72,-435 507.39,-435 507.39,-435 507.39,-435 507.39,-460.1 507.39,-460.1"/>
<polygon fill="black" stroke="black" points="503.89,-460.1 507.39,-470.1 510.89,-460.1 503.89,-460.1"/>
</g>
<!-- heilige vrees -->
<g id="node9" class="node">
<title>heilige vrees</title>
<ellipse fill="none" stroke="black" cx="301.94" cy="-504.54" rx="75.41" ry="18"/>
<text text-anchor="middle" x="301.94" y="-499.87" font-family="Times,serif" font-size="14.00">heilige vrees</text>
</g>
<!-- staat van vrezen&#45;&gt;heilige vrees -->
<g id="edge11" class="edge">
<title>staat van vrezen&#45;&gt;heilige vrees</title>
<path fill="none" stroke="black" d="M337.23,-450.27C337.23,-450.27 337.23,-477.57 337.23,-477.57"/>
<polygon fill="black" stroke="black" points="333.73,-477.57 337.23,-487.57 340.73,-477.57 333.73,-477.57"/>
</g>
<!-- voor God -->
<g id="node10" class="node">
<title>voor God</title>
<ellipse fill="none" stroke="black" cx="226.45" cy="-562.99" rx="56.47" ry="18"/>
<text text-anchor="middle" x="226.45" y="-558.31" font-family="Times,serif" font-size="14.00">voor God</text>
</g>
<!-- heilige vrees&#45;&gt;voor God -->
<g id="edge12" class="edge">
<title>heilige vrees&#45;&gt;voor God</title>
<path fill="none" stroke="black" d="M254.72,-518.99C254.72,-518.99 254.72,-536.06 254.72,-536.06"/>
<polygon fill="black" stroke="black" points="251.22,-536.06 254.72,-546.06 258.22,-536.06 251.22,-536.06"/>
</g>
</g>
</svg>
