<svg width="633" height="519" viewBox="0 0 633 519" fill="none" xmlns="http://www.w3.org/2000/svg">
<rect opacity="0.25" x="397" y="136" width="235.594" height="235.594" rx="63" fill="#D9D9D9"/>
<path d="M476.336 201.636L486.457 231.253H486.866L496.986 201.636H502.917L489.831 238H483.492L470.406 201.636H476.336ZM512.993 238.604C511.265 238.604 509.702 238.284 508.305 237.645C506.909 236.994 505.802 236.053 504.985 234.822C504.18 233.591 503.778 232.081 503.778 230.294C503.778 228.755 504.074 227.489 504.666 226.494C505.257 225.5 506.056 224.713 507.063 224.133C508.069 223.553 509.193 223.115 510.436 222.819C511.679 222.523 512.946 222.298 514.236 222.144C515.869 221.955 517.195 221.801 518.213 221.683C519.231 221.552 519.971 221.345 520.433 221.061C520.894 220.777 521.125 220.315 521.125 219.676V219.552C521.125 218.001 520.687 216.8 519.811 215.947C518.947 215.095 517.657 214.669 515.94 214.669C514.153 214.669 512.744 215.066 511.715 215.859C510.697 216.64 509.992 217.51 509.602 218.469L504.612 217.332C505.204 215.675 506.068 214.338 507.205 213.32C508.353 212.29 509.673 211.544 511.164 211.082C512.656 210.609 514.224 210.372 515.869 210.372C516.958 210.372 518.113 210.502 519.332 210.763C520.563 211.011 521.711 211.473 522.776 212.148C523.854 212.822 524.735 213.787 525.422 215.042C526.109 216.285 526.452 217.901 526.452 219.889V238H521.267V234.271H521.054C520.711 234.958 520.196 235.633 519.509 236.295C518.823 236.958 517.941 237.509 516.864 237.947C515.787 238.385 514.496 238.604 512.993 238.604ZM514.147 234.342C515.615 234.342 516.87 234.052 517.911 233.472C518.965 232.892 519.764 232.135 520.308 231.2C520.865 230.253 521.143 229.241 521.143 228.163V224.648C520.953 224.837 520.587 225.015 520.042 225.18C519.509 225.334 518.9 225.47 518.213 225.589C517.527 225.695 516.858 225.796 516.207 225.891C515.556 225.973 515.011 226.045 514.573 226.104C513.543 226.234 512.602 226.453 511.75 226.761C510.91 227.068 510.235 227.512 509.726 228.092C509.229 228.661 508.98 229.418 508.98 230.365C508.98 231.679 509.466 232.673 510.436 233.348C511.407 234.011 512.644 234.342 514.147 234.342ZM538.832 221.807V238H533.523V210.727H538.619V215.166H538.956C539.584 213.722 540.566 212.562 541.904 211.686C543.253 210.81 544.952 210.372 547 210.372C548.858 210.372 550.486 210.763 551.882 211.544C553.279 212.313 554.362 213.462 555.132 214.989C555.901 216.516 556.286 218.404 556.286 220.653V238H550.977V221.292C550.977 219.315 550.462 217.77 549.432 216.658C548.402 215.533 546.988 214.971 545.188 214.971C543.957 214.971 542.862 215.237 541.904 215.77C540.957 216.303 540.205 217.084 539.649 218.114C539.104 219.132 538.832 220.363 538.832 221.807ZM469.318 299L461.293 271.727H466.779L472.124 291.756H472.39L477.752 271.727H483.239L488.566 291.667H488.832L494.141 271.727H499.627L491.62 299H486.204L480.664 279.309H480.256L474.716 299H469.318ZM504.666 299V271.727H509.975V299H504.666ZM507.347 267.519C506.423 267.519 505.63 267.211 504.967 266.596C504.316 265.969 503.991 265.223 503.991 264.359C503.991 263.483 504.316 262.737 504.967 262.121C505.63 261.494 506.423 261.18 507.347 261.18C508.27 261.18 509.057 261.494 509.708 262.121C510.371 262.737 510.703 263.483 510.703 264.359C510.703 265.223 510.371 265.969 509.708 266.596C509.057 267.211 508.27 267.519 507.347 267.519ZM528.871 299.55C526.184 299.55 523.87 298.976 521.929 297.828C519.999 296.668 518.508 295.04 517.454 292.945C516.412 290.838 515.892 288.37 515.892 285.541C515.892 282.748 516.412 280.286 517.454 278.155C518.508 276.024 519.975 274.361 521.858 273.165C523.751 271.97 525.965 271.372 528.498 271.372C530.037 271.372 531.528 271.627 532.973 272.136C534.417 272.645 535.713 273.444 536.861 274.533C538.009 275.622 538.915 277.036 539.578 278.776C540.241 280.504 540.572 282.606 540.572 285.08V286.962H518.892V282.984H535.37C535.37 281.588 535.085 280.351 534.517 279.273C533.949 278.184 533.15 277.326 532.12 276.699C531.102 276.071 529.907 275.758 528.534 275.758C527.042 275.758 525.74 276.125 524.627 276.859C523.527 277.581 522.674 278.528 522.071 279.7C521.479 280.86 521.183 282.12 521.183 283.482V286.589C521.183 288.412 521.502 289.962 522.142 291.241C522.793 292.519 523.698 293.496 524.858 294.17C526.018 294.833 527.374 295.165 528.924 295.165C529.93 295.165 530.848 295.023 531.676 294.739C532.505 294.443 533.221 294.005 533.825 293.425C534.429 292.845 534.89 292.129 535.21 291.276L540.235 292.182C539.832 293.661 539.11 294.958 538.068 296.07C537.039 297.171 535.742 298.029 534.18 298.645C532.629 299.249 530.86 299.55 528.871 299.55ZM552.269 288.542V288.205C552.292 286.003 552.511 284.251 552.926 282.949C553.352 281.647 553.955 280.593 554.737 279.788C555.518 278.983 556.459 278.25 557.56 277.587C558.27 277.137 558.909 276.634 559.477 276.077C560.046 275.521 560.495 274.882 560.827 274.16C561.158 273.438 561.324 272.639 561.324 271.763C561.324 270.709 561.075 269.798 560.578 269.028C560.081 268.259 559.418 267.667 558.59 267.253C557.773 266.827 556.861 266.614 555.855 266.614C554.944 266.614 554.074 266.803 553.245 267.182C552.417 267.561 551.73 268.152 551.185 268.957C550.641 269.75 550.327 270.774 550.244 272.029H544.847C544.93 269.898 545.468 268.099 546.462 266.631C547.457 265.152 548.771 264.033 550.404 263.276C552.05 262.518 553.867 262.139 555.855 262.139C558.033 262.139 559.939 262.548 561.573 263.364C563.206 264.169 564.473 265.3 565.372 266.756C566.284 268.2 566.739 269.887 566.739 271.816C566.739 273.142 566.532 274.337 566.118 275.403C565.704 276.456 565.112 277.397 564.342 278.226C563.585 279.054 562.673 279.788 561.608 280.428C560.602 281.055 559.785 281.706 559.158 282.381C558.542 283.055 558.092 283.854 557.808 284.778C557.524 285.701 557.37 286.843 557.347 288.205V288.542H552.269ZM554.95 299.337C553.979 299.337 553.145 298.994 552.446 298.308C551.748 297.609 551.399 296.769 551.399 295.786C551.399 294.816 551.748 293.987 552.446 293.3C553.145 292.602 553.979 292.253 554.95 292.253C555.908 292.253 556.737 292.602 557.435 293.3C558.146 293.987 558.501 294.816 558.501 295.786C558.501 296.437 558.335 297.035 558.004 297.58C557.684 298.112 557.258 298.538 556.725 298.858C556.193 299.178 555.601 299.337 554.95 299.337Z" fill="black"/>
<rect opacity="0.25" x="132" y="283" width="235.594" height="235.594" rx="63" fill="#D9D9D9"/>
<path d="M209.283 338.727L220.214 370.713H220.655L231.585 338.727H237.99L223.857 378H217.011L202.878 338.727H209.283ZM248.872 378.652C247.006 378.652 245.318 378.307 243.81 377.616C242.301 376.913 241.106 375.897 240.224 374.567C239.355 373.238 238.92 371.608 238.92 369.678C238.92 368.016 239.24 366.648 239.879 365.574C240.518 364.5 241.381 363.65 242.468 363.023C243.554 362.397 244.769 361.924 246.111 361.604C247.453 361.285 248.821 361.042 250.215 360.876C251.979 360.671 253.411 360.505 254.51 360.377C255.61 360.237 256.409 360.013 256.907 359.706C257.406 359.399 257.655 358.901 257.655 358.21V358.076C257.655 356.401 257.182 355.104 256.236 354.183C255.303 353.263 253.909 352.803 252.056 352.803C250.125 352.803 248.604 353.231 247.492 354.087C246.392 354.931 245.632 355.871 245.21 356.906L239.821 355.679C240.46 353.889 241.394 352.445 242.621 351.345C243.861 350.233 245.286 349.428 246.897 348.929C248.508 348.418 250.202 348.162 251.979 348.162C253.155 348.162 254.402 348.303 255.718 348.584C257.048 348.852 258.288 349.351 259.438 350.08C260.602 350.808 261.554 351.85 262.296 353.205C263.037 354.548 263.408 356.293 263.408 358.44V378H257.809V373.973H257.578C257.208 374.714 256.652 375.443 255.91 376.159C255.169 376.875 254.216 377.469 253.053 377.942C251.889 378.415 250.496 378.652 248.872 378.652ZM250.119 374.05C251.704 374.05 253.059 373.737 254.184 373.11C255.322 372.484 256.185 371.665 256.773 370.656C257.374 369.633 257.674 368.54 257.674 367.376V363.58C257.47 363.784 257.073 363.976 256.485 364.155C255.91 364.321 255.252 364.468 254.51 364.596C253.769 364.711 253.046 364.82 252.343 364.922C251.64 365.011 251.052 365.088 250.579 365.152C249.467 365.293 248.451 365.529 247.53 365.862C246.622 366.194 245.894 366.673 245.344 367.3C244.807 367.913 244.539 368.732 244.539 369.754C244.539 371.173 245.063 372.247 246.111 372.976C247.159 373.692 248.495 374.05 250.119 374.05ZM276.778 360.511V378H271.045V348.545H276.548V353.339H276.913C277.59 351.78 278.651 350.527 280.096 349.581C281.553 348.635 283.388 348.162 285.6 348.162C287.607 348.162 289.364 348.584 290.873 349.428C292.381 350.259 293.551 351.499 294.382 353.148C295.213 354.797 295.629 356.836 295.629 359.265V378H289.895V359.955C289.895 357.82 289.339 356.152 288.227 354.95C287.114 353.736 285.587 353.129 283.644 353.129C282.314 353.129 281.131 353.416 280.096 353.991C279.073 354.567 278.261 355.411 277.661 356.523C277.073 357.622 276.778 358.952 276.778 360.511ZM220.063 416.134C219.692 414.971 219.193 413.929 218.567 413.009C217.953 412.075 217.218 411.283 216.362 410.631C215.505 409.966 214.527 409.461 213.428 409.116C212.341 408.771 211.146 408.598 209.842 408.598C207.63 408.598 205.636 409.167 203.859 410.305C202.082 411.442 200.676 413.111 199.64 415.31C198.617 417.496 198.106 420.174 198.106 423.344C198.106 426.528 198.624 429.219 199.659 431.418C200.695 433.616 202.114 435.285 203.916 436.423C205.719 437.56 207.771 438.129 210.072 438.129C212.207 438.129 214.067 437.695 215.652 436.825C217.25 435.956 218.484 434.729 219.353 433.143C220.235 431.545 220.676 429.666 220.676 427.506L222.21 427.793H210.973V422.903H226.41V427.371C226.41 430.67 225.707 433.533 224.301 435.962C222.907 438.379 220.977 440.245 218.509 441.562C216.055 442.879 213.242 443.537 210.072 443.537C206.518 443.537 203.399 442.719 200.714 441.082C198.042 439.446 195.958 437.126 194.463 434.121C192.967 431.104 192.219 427.525 192.219 423.383C192.219 420.251 192.654 417.438 193.523 414.945C194.392 412.452 195.613 410.337 197.186 408.598C198.771 406.847 200.631 405.511 202.766 404.59C204.914 403.657 207.259 403.19 209.803 403.19C211.926 403.19 213.901 403.504 215.729 404.13C217.57 404.756 219.206 405.645 220.638 406.795C222.083 407.946 223.278 409.314 224.224 410.899C225.17 412.472 225.809 414.217 226.142 416.134H220.063ZM245.879 443.594C243.117 443.594 240.707 442.962 238.649 441.696C236.591 440.43 234.993 438.66 233.855 436.384C232.717 434.109 232.148 431.45 232.148 428.407C232.148 425.352 232.717 422.68 233.855 420.391C234.993 418.103 236.591 416.326 238.649 415.06C240.707 413.795 243.117 413.162 245.879 413.162C248.64 413.162 251.05 413.795 253.108 415.06C255.166 416.326 256.764 418.103 257.902 420.391C259.04 422.68 259.609 425.352 259.609 428.407C259.609 431.45 259.04 434.109 257.902 436.384C256.764 438.66 255.166 440.43 253.108 441.696C251.05 442.962 248.64 443.594 245.879 443.594ZM245.898 438.781C247.688 438.781 249.17 438.308 250.347 437.362C251.523 436.416 252.392 435.157 252.955 433.585C253.53 432.012 253.817 430.28 253.817 428.388C253.817 426.509 253.53 424.783 252.955 423.21C252.392 421.625 251.523 420.353 250.347 419.394C249.17 418.435 247.688 417.956 245.898 417.956C244.095 417.956 242.599 418.435 241.411 419.394C240.234 420.353 239.359 421.625 238.783 423.21C238.221 424.783 237.94 426.509 237.94 428.388C237.94 430.28 238.221 432.012 238.783 433.585C239.359 435.157 240.234 436.416 241.411 437.362C242.599 438.308 244.095 438.781 245.898 438.781ZM277.035 443.575C274.657 443.575 272.535 442.968 270.669 441.754C268.815 440.526 267.357 438.781 266.296 436.518C265.248 434.243 264.724 431.513 264.724 428.33C264.724 425.147 265.254 422.424 266.316 420.161C267.389 417.898 268.86 416.166 270.726 414.964C272.593 413.763 274.708 413.162 277.073 413.162C278.901 413.162 280.372 413.469 281.484 414.082C282.609 414.683 283.478 415.386 284.092 416.192C284.718 416.997 285.204 417.707 285.549 418.32H285.894V403.727H291.628V443H286.029V438.417H285.549C285.204 439.043 284.705 439.759 284.053 440.565C283.414 441.37 282.532 442.073 281.407 442.674C280.282 443.275 278.825 443.575 277.035 443.575ZM278.301 438.685C279.95 438.685 281.343 438.251 282.481 437.381C283.632 436.499 284.501 435.278 285.089 433.719C285.69 432.159 285.99 430.344 285.99 428.273C285.99 426.227 285.696 424.437 285.108 422.903C284.52 421.369 283.657 420.174 282.519 419.317C281.382 418.461 279.975 418.033 278.301 418.033C276.575 418.033 275.137 418.48 273.986 419.375C272.835 420.27 271.966 421.491 271.378 423.038C270.803 424.585 270.515 426.33 270.515 428.273C270.515 430.241 270.809 432.012 271.397 433.585C271.985 435.157 272.855 436.403 274.005 437.324C275.169 438.232 276.6 438.685 278.301 438.685ZM307.041 403.727L306.542 431.705H301.23L300.732 403.727H307.041ZM303.896 443.364C302.835 443.364 301.927 442.994 301.173 442.252C300.419 441.498 300.048 440.59 300.061 439.529C300.048 438.481 300.419 437.586 301.173 436.844C301.927 436.09 302.835 435.713 303.896 435.713C304.931 435.713 305.826 436.09 306.581 436.844C307.335 437.586 307.718 438.481 307.731 439.529C307.718 440.232 307.533 440.878 307.175 441.466C306.83 442.041 306.37 442.501 305.794 442.847C305.219 443.192 304.586 443.364 303.896 443.364Z" fill="black"/>
<rect opacity="0.25" width="235.594" height="235.594" rx="63" fill="#D9D9D9"/>
<path d="M78.8086 62L87.7148 88.0625H88.0742L96.9805 62H102.199L90.6836 94H85.1055L73.5898 62H78.8086ZM114.383 94.4844C112.018 94.4844 109.982 93.9792 108.273 92.9688C106.576 91.9479 105.263 90.5156 104.336 88.6719C103.419 86.8177 102.961 84.6458 102.961 82.1562C102.961 79.6979 103.419 77.5312 104.336 75.6562C105.263 73.7812 106.555 72.3177 108.211 71.2656C109.878 70.2135 111.826 69.6875 114.055 69.6875C115.409 69.6875 116.721 69.9115 117.992 70.3594C119.263 70.8073 120.404 71.5104 121.414 72.4687C122.424 73.4271 123.221 74.6719 123.805 76.2031C124.388 77.724 124.68 79.5729 124.68 81.75V83.4062H105.602V79.9062H120.102C120.102 78.6771 119.852 77.5885 119.352 76.6406C118.852 75.6823 118.148 74.9271 117.242 74.375C116.346 73.8229 115.294 73.5469 114.086 73.5469C112.773 73.5469 111.628 73.8698 110.648 74.5156C109.68 75.151 108.93 75.9844 108.398 77.0156C107.878 78.0365 107.617 79.1458 107.617 80.3438V83.0781C107.617 84.6823 107.898 86.0469 108.461 87.1719C109.034 88.2969 109.831 89.1562 110.852 89.75C111.872 90.3333 113.065 90.625 114.43 90.625C115.315 90.625 116.122 90.5 116.852 90.25C117.581 89.9896 118.211 89.6042 118.742 89.0937C119.273 88.5833 119.68 87.9531 119.961 87.2031L124.383 88C124.029 89.3021 123.393 90.4427 122.477 91.4219C121.57 92.3906 120.43 93.1458 119.055 93.6875C117.69 94.2188 116.133 94.4844 114.383 94.4844ZM140.207 94.4844C137.842 94.4844 135.806 93.9792 134.098 92.9688C132.4 91.9479 131.087 90.5156 130.16 88.6719C129.243 86.8177 128.785 84.6458 128.785 82.1562C128.785 79.6979 129.243 77.5312 130.16 75.6562C131.087 73.7812 132.379 72.3177 134.035 71.2656C135.702 70.2135 137.65 69.6875 139.879 69.6875C141.233 69.6875 142.546 69.9115 143.816 70.3594C145.087 70.8073 146.228 71.5104 147.238 72.4687C148.249 73.4271 149.046 74.6719 149.629 76.2031C150.212 77.724 150.504 79.5729 150.504 81.75V83.4062H131.426V79.9062H145.926C145.926 78.6771 145.676 77.5885 145.176 76.6406C144.676 75.6823 143.973 74.9271 143.066 74.375C142.171 73.8229 141.118 73.5469 139.91 73.5469C138.598 73.5469 137.452 73.8698 136.473 74.5156C135.504 75.151 134.754 75.9844 134.223 77.0156C133.702 78.0365 133.441 79.1458 133.441 80.3438V83.0781C133.441 84.6823 133.723 86.0469 134.285 87.1719C134.858 88.2969 135.655 89.1562 136.676 89.75C137.697 90.3333 138.889 90.625 140.254 90.625C141.139 90.625 141.947 90.5 142.676 90.25C143.405 89.9896 144.035 89.6042 144.566 89.0937C145.098 88.5833 145.504 87.9531 145.785 87.2031L150.207 88C149.853 89.3021 149.217 90.4427 148.301 91.4219C147.395 92.3906 146.254 93.1458 144.879 93.6875C143.514 94.2188 141.957 94.4844 140.207 94.4844ZM160.359 62V94H155.688V62H160.359ZM54.9395 123L46.2363 147H41.2363L32.5176 123H37.5332L43.6113 141.469H43.8613L49.9238 123H54.9395ZM59.3301 147V123H63.8457V126.812H64.0957C64.5332 125.521 65.304 124.505 66.4082 123.766C67.5228 123.016 68.7832 122.641 70.1895 122.641C70.4811 122.641 70.8249 122.651 71.2207 122.672C71.627 122.693 71.9447 122.719 72.1738 122.75V127.219C71.9863 127.167 71.653 127.109 71.1738 127.047C70.6947 126.974 70.2155 126.937 69.7363 126.937C68.6322 126.937 67.6478 127.172 66.7832 127.641C65.929 128.099 65.252 128.74 64.752 129.562C64.252 130.375 64.002 131.302 64.002 132.344V147H59.3301ZM85.7012 147.484C83.3366 147.484 81.3001 146.979 79.5918 145.969C77.8939 144.948 76.5814 143.516 75.6543 141.672C74.7376 139.818 74.2793 137.646 74.2793 135.156C74.2793 132.698 74.7376 130.531 75.6543 128.656C76.5814 126.781 77.873 125.318 79.5293 124.266C81.196 123.214 83.1439 122.688 85.373 122.688C86.7272 122.688 88.0397 122.911 89.3105 123.359C90.5814 123.807 91.722 124.51 92.7324 125.469C93.7428 126.427 94.5397 127.672 95.123 129.203C95.7064 130.724 95.998 132.573 95.998 134.75V136.406H76.9199V132.906H91.4199C91.4199 131.677 91.1699 130.589 90.6699 129.641C90.1699 128.682 89.4668 127.927 88.5605 127.375C87.6647 126.823 86.6126 126.547 85.4043 126.547C84.0918 126.547 82.946 126.87 81.9668 127.516C80.998 128.151 80.248 128.984 79.7168 130.016C79.196 131.036 78.9355 132.146 78.9355 133.344V136.078C78.9355 137.682 79.2168 139.047 79.7793 140.172C80.3522 141.297 81.1491 142.156 82.1699 142.75C83.1908 143.333 84.3835 143.625 85.748 143.625C86.6335 143.625 87.4408 143.5 88.1699 143.25C88.8991 142.99 89.5293 142.604 90.0605 142.094C90.5918 141.583 90.998 140.953 91.2793 140.203L95.7012 141C95.347 142.302 94.7116 143.443 93.7949 144.422C92.8887 145.391 91.748 146.146 90.373 146.687C89.0085 147.219 87.4512 147.484 85.7012 147.484ZM116.385 137.047V123H121.072V147H116.479V142.844H116.229C115.676 144.125 114.791 145.193 113.572 146.047C112.364 146.891 110.859 147.313 109.057 147.313C107.515 147.313 106.15 146.974 104.963 146.297C103.786 145.609 102.859 144.594 102.182 143.25C101.515 141.906 101.182 140.245 101.182 138.266V123H105.854V137.703C105.854 139.339 106.307 140.641 107.213 141.609C108.119 142.578 109.296 143.062 110.744 143.062C111.619 143.062 112.489 142.844 113.354 142.406C114.229 141.969 114.952 141.307 115.525 140.422C116.109 139.536 116.395 138.411 116.385 137.047ZM137.412 156.5C135.506 156.5 133.865 156.25 132.49 155.75C131.126 155.25 130.011 154.589 129.146 153.766C128.282 152.943 127.636 152.042 127.209 151.063L131.225 149.406C131.506 149.865 131.881 150.349 132.35 150.859C132.829 151.38 133.475 151.823 134.287 152.188C135.11 152.552 136.167 152.734 137.459 152.734C139.23 152.734 140.693 152.302 141.85 151.438C143.006 150.583 143.584 149.219 143.584 147.344V142.625H143.287C143.006 143.135 142.6 143.703 142.068 144.328C141.548 144.953 140.829 145.495 139.912 145.953C138.995 146.411 137.803 146.641 136.334 146.641C134.438 146.641 132.73 146.198 131.209 145.312C129.699 144.417 128.501 143.099 127.615 141.359C126.74 139.609 126.303 137.458 126.303 134.906C126.303 132.354 126.735 130.167 127.6 128.344C128.475 126.521 129.673 125.125 131.193 124.156C132.714 123.177 134.438 122.688 136.365 122.688C137.855 122.688 139.058 122.938 139.975 123.437C140.891 123.927 141.605 124.5 142.115 125.156C142.636 125.812 143.037 126.391 143.318 126.891H143.662V123H148.24V147.531C148.24 149.594 147.761 151.286 146.803 152.609C145.844 153.932 144.548 154.911 142.912 155.547C141.287 156.182 139.454 156.5 137.412 156.5ZM137.365 142.766C138.709 142.766 139.844 142.453 140.771 141.828C141.709 141.193 142.417 140.286 142.896 139.109C143.386 137.922 143.631 136.5 143.631 134.844C143.631 133.229 143.391 131.807 142.912 130.578C142.433 129.349 141.73 128.391 140.803 127.703C139.876 127.005 138.73 126.656 137.365 126.656C135.959 126.656 134.787 127.021 133.85 127.75C132.912 128.469 132.204 129.448 131.725 130.687C131.256 131.927 131.021 133.312 131.021 134.844C131.021 136.417 131.261 137.797 131.74 138.984C132.219 140.172 132.928 141.099 133.865 141.766C134.813 142.432 135.98 142.766 137.365 142.766ZM163.49 147.469C161.553 147.469 159.824 146.974 158.303 145.984C156.792 144.984 155.605 143.562 154.74 141.719C153.886 139.865 153.459 137.641 153.459 135.047C153.459 132.453 153.891 130.234 154.756 128.391C155.631 126.547 156.829 125.135 158.35 124.156C159.87 123.177 161.594 122.688 163.521 122.688C165.011 122.688 166.209 122.938 167.115 123.437C168.032 123.927 168.74 124.5 169.24 125.156C169.751 125.812 170.146 126.391 170.428 126.891H170.709V115H175.381V147H170.818V143.266H170.428C170.146 143.776 169.74 144.359 169.209 145.016C168.688 145.672 167.969 146.245 167.053 146.734C166.136 147.224 164.949 147.469 163.49 147.469ZM164.521 143.484C165.865 143.484 167.001 143.13 167.928 142.422C168.865 141.703 169.574 140.708 170.053 139.438C170.542 138.167 170.787 136.687 170.787 135C170.787 133.333 170.548 131.875 170.068 130.625C169.589 129.375 168.886 128.401 167.959 127.703C167.032 127.005 165.886 126.656 164.521 126.656C163.115 126.656 161.943 127.021 161.006 127.75C160.068 128.479 159.36 129.474 158.881 130.734C158.412 131.995 158.178 133.417 158.178 135C158.178 136.604 158.417 138.047 158.896 139.328C159.376 140.609 160.084 141.625 161.021 142.375C161.969 143.115 163.136 143.484 164.521 143.484ZM192.393 147.484C190.028 147.484 187.992 146.979 186.283 145.969C184.585 144.948 183.273 143.516 182.346 141.672C181.429 139.818 180.971 137.646 180.971 135.156C180.971 132.698 181.429 130.531 182.346 128.656C183.273 126.781 184.564 125.318 186.221 124.266C187.887 123.214 189.835 122.688 192.064 122.688C193.419 122.688 194.731 122.911 196.002 123.359C197.273 123.807 198.413 124.51 199.424 125.469C200.434 126.427 201.231 127.672 201.814 129.203C202.398 130.724 202.689 132.573 202.689 134.75V136.406H183.611V132.906H198.111C198.111 131.677 197.861 130.589 197.361 129.641C196.861 128.682 196.158 127.927 195.252 127.375C194.356 126.823 193.304 126.547 192.096 126.547C190.783 126.547 189.637 126.87 188.658 127.516C187.689 128.151 186.939 128.984 186.408 130.016C185.887 131.036 185.627 132.146 185.627 133.344V136.078C185.627 137.682 185.908 139.047 186.471 140.172C187.044 141.297 187.84 142.156 188.861 142.75C189.882 143.333 191.075 143.625 192.439 143.625C193.325 143.625 194.132 143.5 194.861 143.25C195.59 142.99 196.221 142.604 196.752 142.094C197.283 141.583 197.689 140.953 197.971 140.203L202.393 141C202.038 142.302 201.403 143.443 200.486 144.422C199.58 145.391 198.439 146.146 197.064 146.687C195.7 147.219 194.143 147.484 192.393 147.484Z" fill="black"/>
</svg>

