<?xml version="1.0" encoding="UTF-8" standalone="no"?>
<!DOCTYPE svg PUBLIC "-//W3C//DTD SVG 1.1//EN"
 "http://www.w3.org/Graphics/SVG/1.1/DTD/svg11.dtd">
<!-- Generated by graphviz version 8.0.4 (0)
 -->
<!-- Title: 1 Pages: 1 -->
<svg width="620pt" height="648pt"
 viewBox="0.00 0.00 620.26 648.00" xmlns="http://www.w3.org/2000/svg" xmlns:xlink="http://www.w3.org/1999/xlink">
<g id="graph0" class="graph" transform="scale(0.634914 0.634914) rotate(0) translate(4 1016.61)">
<title>1</title>
<polygon fill="white" stroke="none" points="-4,4 -4,-1016.61 972.92,-1016.61 972.92,4 -4,4"/>
<!-- vrijheid -->
<g id="node1" class="node">
<title>vrijheid</title>
<ellipse fill="#ffffba" stroke="black" cx="435.67" cy="-774.12" rx="49.63" ry="18"/>
<text text-anchor="middle" x="435.67" y="-769.45" font-family="Times,serif" font-size="14.00">vrijheid</text>
</g>
<!-- meta&#45;vrijheid -->
<g id="node2" class="node">
<title>meta&#45;vrijheid</title>
<ellipse fill="none" stroke="black" cx="343.76" cy="-994.61" rx="78.04" ry="18"/>
<text text-anchor="middle" x="343.76" y="-989.94" font-family="Times,serif" font-size="14.00">meta&#45;vrijheid</text>
</g>
<!-- vrijheid&#45;&gt;meta&#45;vrijheid -->
<g id="edge1" class="edge">
<title>vrijheid&#45;&gt;meta&#45;vrijheid</title>
<path fill="none" stroke="black" d="M428.15,-792.17C412.16,-830.52 374.69,-920.42 355.51,-966.41"/>
<polygon fill="black" stroke="black" points="352,-964.74 351.38,-975.32 358.46,-967.43 352,-964.74"/>
</g>
<!-- goddelijk -->
<g id="node3" class="node">
<title>goddelijk</title>
<ellipse fill="none" stroke="black" cx="115.56" cy="-774.32" rx="57" ry="18"/>
<text text-anchor="middle" x="115.56" y="-769.65" font-family="Times,serif" font-size="14.00">goddelijk</text>
</g>
<!-- vrijheid&#45;&gt;goddelijk -->
<g id="edge5" class="edge">
<title>vrijheid&#45;&gt;goddelijk</title>
<path fill="none" stroke="black" d="M385.65,-774.15C331.36,-774.19 244.31,-774.24 183.77,-774.28"/>
<polygon fill="black" stroke="black" points="183.79,-770.78 173.79,-774.29 183.79,-777.78 183.79,-770.78"/>
</g>
<!-- realiseerbaarheid -->
<g id="node4" class="node">
<title>realiseerbaarheid</title>
<ellipse fill="none" stroke="black" cx="99.61" cy="-952.61" rx="99.61" ry="18"/>
<text text-anchor="middle" x="99.61" y="-947.93" font-family="Times,serif" font-size="14.00">realiseerbaarheid</text>
</g>
<!-- vrijheid&#45;&gt;realiseerbaarheid -->
<g id="edge3" class="edge">
<title>vrijheid&#45;&gt;realiseerbaarheid</title>
<path fill="none" stroke="black" d="M407.31,-789.19C348.14,-820.61 211.29,-893.3 141.77,-930.22"/>
<polygon fill="black" stroke="black" points="140.61,-927.4 133.42,-935.18 143.9,-933.58 140.61,-927.4"/>
</g>
<!-- mogelijkheid tot handelen -->
<g id="node5" class="node">
<title>mogelijkheid tot handelen</title>
<ellipse fill="none" stroke="black" cx="729.66" cy="-959.36" rx="141.7" ry="18"/>
<text text-anchor="middle" x="729.66" y="-954.69" font-family="Times,serif" font-size="14.00">mogelijkheid tot handelen</text>
</g>
<!-- vrijheid&#45;&gt;mogelijkheid tot handelen -->
<g id="edge4" class="edge">
<title>vrijheid&#45;&gt;mogelijkheid tot handelen</title>
<path fill="none" stroke="black" d="M460.99,-790.08C512.82,-822.73 631.21,-897.33 692.05,-935.66"/>
<polygon fill="black" stroke="black" points="689.97,-939.12 700.3,-941.49 693.7,-933.2 689.97,-939.12"/>
</g>
<!-- staat van vrezen -->
<g id="node6" class="node">
<title>staat van vrezen</title>
<ellipse fill="#ffffba" stroke="black" cx="559.65" cy="-502.29" rx="94.35" ry="18"/>
<text text-anchor="middle" x="559.65" y="-497.61" font-family="Times,serif" font-size="14.00">staat van vrezen</text>
</g>
<!-- vrijheid&#45;&gt;staat van vrezen -->
<g id="edge7" class="edge">
<title>vrijheid&#45;&gt;staat van vrezen</title>
<path fill="none" stroke="black" d="M447.73,-756.53C472.99,-710.58 529.62,-586.86 551.33,-530.69"/>
<polygon fill="black" stroke="black" points="554.84,-532.3 555.08,-521.71 548.29,-529.84 554.84,-532.3"/>
</g>
<!-- meta&#45;vrijheid&#45;&gt;goddelijk -->
<g id="edge2" class="edge">
<title>meta&#45;vrijheid&#45;&gt;goddelijk</title>
<path fill="none" stroke="black" d="M330.26,-976.48C294.6,-936.84 197.8,-842.95 147.21,-798.42"/>
<polygon fill="black" stroke="black" points="149.75,-795.13 139.91,-791.21 145.16,-800.41 149.75,-795.13"/>
</g>
<!-- goddelijk&#45;&gt;meta&#45;vrijheid -->
<g id="edge6" class="edge">
<title>goddelijk&#45;&gt;meta&#45;vrijheid</title>
<path fill="none" stroke="black" d="M128.72,-792.08C163.97,-831.35 260.62,-925.13 311.53,-970"/>
<polygon fill="black" stroke="black" points="308.75,-973.09 318.59,-977.02 313.35,-967.82 308.75,-973.09"/>
</g>
<!-- staat van vrezen&#45;&gt;vrijheid -->
<g id="edge8" class="edge">
<title>staat van vrezen&#45;&gt;vrijheid</title>
<path fill="none" stroke="black" d="M547.37,-520.3C522.03,-566.51 465.79,-689.38 444.08,-745.49"/>
<polygon fill="black" stroke="black" points="440.45,-744.19 440.21,-754.78 447.01,-746.65 440.45,-744.19"/>
</g>
<!-- bang zijn -->
<g id="node7" class="node">
<title>bang zijn</title>
<ellipse fill="none" stroke="black" cx="261.54" cy="-329.23" rx="57" ry="18"/>
<text text-anchor="middle" x="261.54" y="-324.56" font-family="Times,serif" font-size="14.00">bang zijn</text>
</g>
<!-- staat van vrezen&#45;&gt;bang zijn -->
<g id="edge9" class="edge">
<title>staat van vrezen&#45;&gt;bang zijn</title>
<path fill="none" stroke="black" d="M529.7,-484.9C474.87,-453.07 358.52,-385.53 298.73,-350.82"/>
<polygon fill="black" stroke="black" points="300.69,-347.33 290.29,-345.34 297.18,-353.39 300.69,-347.33"/>
</g>
<!-- angst -->
<g id="node8" class="node">
<title>angst</title>
<ellipse fill="none" stroke="black" cx="929.81" cy="-536.95" rx="39.11" ry="18"/>
<text text-anchor="middle" x="929.81" y="-532.28" font-family="Times,serif" font-size="14.00">angst</text>
</g>
<!-- staat van vrezen&#45;&gt;angst -->
<g id="edge10" class="edge">
<title>staat van vrezen&#45;&gt;angst</title>
<path fill="none" stroke="black" d="M645.04,-510.28C718,-517.12 820.43,-526.71 880.48,-532.33"/>
<polygon fill="black" stroke="black" points="879.9,-535.89 890.19,-533.34 880.56,-528.92 879.9,-535.89"/>
</g>
<!-- heilige vrees -->
<g id="node9" class="node">
<title>heilige vrees</title>
<ellipse fill="none" stroke="black" cx="691.95" cy="-251.14" rx="75.41" ry="18"/>
<text text-anchor="middle" x="691.95" y="-246.47" font-family="Times,serif" font-size="14.00">heilige vrees</text>
</g>
<!-- staat van vrezen&#45;&gt;heilige vrees -->
<g id="edge11" class="edge">
<title>staat van vrezen&#45;&gt;heilige vrees</title>
<path fill="none" stroke="black" d="M569.17,-484.22C591.99,-440.89 650,-330.77 677.31,-278.93"/>
<polygon fill="black" stroke="black" points="680.78,-280.86 682.34,-270.38 674.58,-277.59 680.78,-280.86"/>
</g>
<!-- voor God -->
<g id="node10" class="node">
<title>voor God</title>
<ellipse fill="none" stroke="black" cx="829.5" cy="-18" rx="56.47" ry="18"/>
<text text-anchor="middle" x="829.5" y="-13.32" font-family="Times,serif" font-size="14.00">voor God</text>
</g>
<!-- heilige vrees&#45;&gt;voor God -->
<g id="edge12" class="edge">
<title>heilige vrees&#45;&gt;voor God</title>
<path fill="none" stroke="black" d="M702.74,-232.85C726.8,-192.06 784.96,-93.48 813.36,-45.35"/>
<polygon fill="black" stroke="black" points="816.87,-47.28 818.94,-36.89 810.85,-43.72 816.87,-47.28"/>
</g>
</g>
</svg>
